<svg width="40" height="40" viewBox="0 0 40 40" fill="none" xmlns="http://www.w3.org/2000/svg">
<g clip-path="url(#clip0_2_10)">
<path fill-rule="evenodd" clip-rule="evenodd" d="M5.0687 1.32809C5.0309 1.35311 4.9309 1.43809 4.8464 1.51689C4.7619 1.59569 4.6635 1.68718 4.6277 1.72024C4.592 1.75318 4.5452 1.79823 4.5237 1.82034C4.4877 1.85724 3.2609 2.92626 2.9946 3.15266C2.7684 3.34506 2.7203 3.80892 2.8852 4.20619C2.99 4.45889 2.9908 4.45785 2.4897 4.73895C1.9218 5.05766 1.9068 5.05824 1.5425 4.78028L1.2543 4.5604L1.1598 4.68099C1.016 4.86432 0.9983 4.83533 1.4691 5.1893C1.7713 5.41663 1.7742 5.44725 1.5206 5.73894L1.323 5.96616L1.4261 6.063C1.5589 6.18767 1.5133 6.21316 1.9072 5.79377C2.2728 5.40429 2.4193 5.2844 2.8919 4.98723C3.2359 4.77085 3.2651 4.76607 3.4162 4.90017L3.5288 5.00015H5.1085H6.6882L6.875 4.89353C7.9139 4.30013 8.9404 5.98606 8.3273 7.27868C8.2172 7.5109 8.0893 7.72705 7.6281 8.46014C7.5589 8.57014 7.4121 8.80422 7.3018 8.98022C7.1916 9.15621 7.0616 9.36317 7.0129 9.44011C6.9642 9.51694 6.8703 9.67408 6.8041 9.78908C6.6475 10.0615 5.6964 11.6141 5.6703 11.6402C5.4507 11.8586 4.9869 13.0016 4.8341 13.701C4.6583 14.5055 4.657 14.5172 4.6567 15.3802C4.6563 16.3377 4.6778 16.5005 4.9271 17.4294C5.4489 19.3738 6.9754 21.0737 8.6401 21.5642C8.8756 21.6336 9.0464 21.6794 9.244 21.7264C9.3722 21.7568 10.5719 21.7791 12.9725 21.7957C16.8904 21.8228 16.5321 21.7977 17.0599 22.0821C19.1986 23.2343 18.5208 27.0001 16.1747 27.0002C13.8049 27.0003 12.1259 30.0645 13.0691 32.6679C13.3493 33.4413 14.2417 34.5601 14.5782 34.5601C14.6042 34.5601 14.6401 34.5763 14.6581 34.5961C14.8708 34.8302 15.6047 34.9573 16.7526 34.9592C17.7851 34.9608 17.8709 34.9759 18.0572 35.1902C18.6122 35.8285 18.1725 36.5601 17.2341 36.5601H16.8041V37.4202V38.2802H17.625C18.8814 38.2802 19.3966 38.0389 19.8691 37.229C20.876 35.503 20.2617 33.3923 18.5118 32.5654C18.2669 32.4497 17.8157 32.4002 17.0054 32.4002C15.9526 32.4002 15.7053 32.2771 15.5521 31.6767C15.3438 30.8604 15.7672 30.3901 16.7526 30.3436C16.9794 30.3328 17.2113 30.3075 17.268 30.2871C17.3247 30.2667 17.4562 30.2273 17.5601 30.1993C22.0579 28.9892 22.7086 21.6011 18.5461 19.0049C17.425 18.3056 17.1753 18.2732 12.9725 18.2828C9.6421 18.2905 9.8056 18.2974 9.3222 18.1258C8.7795 17.9329 8.2022 17.3586 7.9317 16.7423C7.5375 15.8443 7.526 14.9776 7.8972 14.1363C7.9973 13.9093 8.5413 12.9874 9.2629 11.8218C9.4258 11.5587 9.677 11.1447 9.8212 10.9017C9.9654 10.6589 10.2108 10.2592 10.3664 10.0137C10.8852 9.19544 11.0497 8.85322 11.2284 8.22024C12.1001 5.13262 10.5393 1.91928 7.8866 1.34019C7.538 1.26418 5.1808 1.25394 5.0687 1.32809ZM5.6064 2.48114C5.8198 2.55017 5.933 2.85607 5.8244 3.07001C5.6031 3.50616 4.7423 3.37091 4.7423 2.90007C4.7423 2.53329 5.1526 2.33448 5.6064 2.48114Z" fill="#1C4352"/>
<path fill-rule="evenodd" clip-rule="evenodd" d="M31.3199 3.09507C31.3099 3.12534 31.3076 3.2379 31.3148 3.3451L31.3278 3.53995L31.334 3.30599L31.3402 3.07191L31.5034 3.09449C31.7527 3.12894 31.7706 3.13511 31.8324 3.20717C31.9162 3.30483 31.9061 3.38933 31.8213 3.30005C31.7835 3.26013 31.7526 3.24767 31.7526 3.27223C31.7526 3.31553 31.8438 3.45323 32.288 4.08005C32.5186 4.4055 32.8522 4.95386 32.8522 5.00752C32.8522 5.06642 32.3719 5.79997 32.3334 5.79997C32.3129 5.79997 32.2164 5.72233 32.1189 5.62747C32.0214 5.53249 31.8567 5.38396 31.7529 5.29747C31.6491 5.21087 31.5194 5.08085 31.4647 5.00845C31.4099 4.93617 31.3325 4.85795 31.2925 4.83467C31.2523 4.81127 31.2774 4.85574 31.3488 4.93419L31.4777 5.07597V5.85794C31.4777 6.41398 31.4888 6.63712 31.5161 6.63002C31.5373 6.62455 31.6322 6.77168 31.7271 6.95699C32.2012 7.88283 32.9191 8.37579 33.7973 8.3787C34.031 8.37939 34.2206 8.39732 34.2349 8.42002C34.2733 8.48078 34.266 9.05835 34.2263 9.10457C34.1219 9.22609 33.2493 9.07488 32.8402 8.86432C32.3652 8.61988 31.5364 7.79437 31.5024 7.532C31.4945 7.47043 31.4856 7.87003 31.4828 8.42002C31.4758 9.76246 31.4182 10.139 31.1236 10.7672C30.6598 11.7562 29.708 12.2299 28.6082 12.0193C28.5515 12.0085 28.5281 12.0117 28.5561 12.0262C28.6162 12.0576 28.6942 12.1439 28.6942 12.179C28.6942 12.1925 28.7654 12.3475 28.8525 12.5231C29.5823 13.996 29.744 15.6077 29.3135 17.1171C29.1716 17.6146 28.9621 18.198 28.8671 18.36C28.8348 18.4149 28.7985 18.4919 28.7864 18.5309C28.7611 18.6127 28.7383 18.6234 28.5052 18.6637C28.4107 18.68 28.3572 18.7 28.3863 18.708C28.4722 18.7318 29.246 18.5719 30.0687 18.3607C30.5855 18.2279 31.6713 17.8377 31.8026 17.7375C32.1181 17.4969 33.6688 15.2831 34.0565 14.52C34.2648 14.1099 34.2688 14.0517 34.2918 11.086L34.3127 8.39208L34.6373 8.29419C35.1941 8.12634 35.5642 7.93149 36.208 7.46694C36.5981 7.18548 36.5475 7.17815 36.8955 7.56611L37.188 7.89214L37.6667 7.86677C38.323 7.83208 38.3496 7.81288 38.6735 7.14032C38.9088 6.65167 38.9092 6.62373 38.6896 6.20004C38.5927 6.01298 38.4844 5.78158 38.4488 5.68567C38.3823 5.50641 38.0142 4.9137 37.7788 4.60699L37.646 4.43402L36.3032 4.43821L34.9603 4.44228L34.8599 4.35231C34.8046 4.30272 34.6899 4.1869 34.6048 4.09483C34.0903 3.53774 33.9889 3.47675 33.6184 3.50073C33.4711 3.51027 33.2085 3.52715 33.035 3.53844C32.85 3.55031 32.6264 3.59431 32.4943 3.64483C32.2392 3.74226 32.2307 3.73876 32.0765 3.46907C31.8615 3.09344 31.7967 3.04002 31.5558 3.04002C31.4026 3.04002 31.3327 3.05631 31.3199 3.09507ZM31.2821 3.77997C31.2823 3.91197 31.2887 3.9612 31.2964 3.88927C31.304 3.81733 31.3039 3.70943 31.296 3.64925C31.2882 3.58919 31.2819 3.64797 31.2821 3.77997ZM31.2436 4.20436C31.24 4.30586 31.2296 4.47686 31.2205 4.58441L31.2038 4.77996L31.239 4.62003C31.2584 4.53203 31.2688 4.36104 31.2621 4.23998C31.2504 4.02557 31.2499 4.02464 31.2436 4.20436ZM35.0295 5.05094C35.0946 5.10623 34.9403 5.65052 34.8382 5.72606C34.6859 5.83862 34.1355 5.82034 34.0183 5.69882C33.9332 5.61071 33.7458 5.17828 33.7457 5.07003C33.7457 4.97947 34.925 4.96201 35.0295 5.05094ZM20.4124 5.38803C20.384 5.39991 20.3144 5.43436 20.2577 5.46439C20.201 5.49454 19.7062 5.75155 19.1581 6.03557C18.0001 6.63572 18.0776 6.56484 17.6834 7.38371C17.1437 8.50464 17.4488 8.24228 15.6633 9.12086C14.3283 9.77794 14.1037 9.94812 13.2102 10.98C12.2574 12.0804 11.4463 13.4273 11.0317 14.5977C10.8953 14.983 10.6784 15.8637 10.6983 15.9518C10.712 16.0125 10.7141 16.0121 10.7177 15.9475C10.7246 15.822 10.9125 15.0651 11 14.81C11.017 14.7604 11.0437 14.6795 11.0593 14.63C11.1915 14.2109 11.8984 12.7614 11.9711 12.7603C11.9874 12.7602 11.9926 12.8275 11.9828 12.91C11.9729 12.9924 11.9371 13.537 11.9031 14.12C11.8457 15.1032 11.8354 15.1901 11.7604 15.3193C11.6699 15.4751 11.4089 16.1 11.4089 16.1607C11.4089 16.2394 10.6944 16.2095 10.6766 16.13C10.6619 16.0643 10.6606 16.0645 10.6569 16.1313C10.6517 16.2251 10.7133 16.2486 10.9712 16.2507C11.4305 16.2545 11.38 16.2907 11.5792 15.8159C11.7878 15.319 11.788 15.319 11.8165 15.8277L11.8385 16.22L14.2612 16.2447C16.8127 16.2705 16.8769 16.2749 17.6513 16.4738C19.5925 16.9728 21.3867 18.618 22.3038 20.74C22.5772 21.3728 22.465 21.3403 23.5305 21.0945C24.2534 20.9276 24.3719 20.9094 24.3997 20.9606C24.4194 20.9969 24.4321 23.6214 24.4325 27.7267C24.4328 31.4154 24.4424 34.4619 24.4538 34.4967C24.4903 34.6072 28.1787 34.5915 28.1787 34.4809C28.1787 34.4133 27.8887 33.6339 27.704 33.2054C27.6318 33.0378 27.5954 33.019 26.7526 32.7169C26.3746 32.5813 26.0374 32.4533 26.0032 32.4325C25.895 32.3666 25.9296 27.6807 26.0407 27.34C26.0838 27.208 26.204 26.7489 26.3078 26.32C26.4117 25.8909 26.5642 25.261 26.6467 24.9199C26.7292 24.579 26.854 24.0569 26.9239 23.76C27.0657 23.1579 27.2813 22.2566 27.3927 21.8C27.5144 21.3015 27.5482 21.1594 27.6591 20.68C28.0535 18.9761 28.0958 18.8214 28.1814 18.7705C28.2439 18.7335 28.2496 18.7211 28.2045 18.7206C28.1182 18.7198 28.1255 18.6681 28.3149 17.9408C28.8253 15.9811 28.8715 14.9565 28.509 13.64C28.3561 13.0845 27.9838 12.1393 27.7991 11.8374C27.7256 11.7173 27.7951 11.6536 27.8883 11.7558C27.9289 11.8003 28.4084 12.0011 28.4642 11.997C28.4867 11.9954 28.4046 11.953 28.2818 11.9029C27.9239 11.7569 27.7108 11.6134 27.5884 11.4363C27.5256 11.3454 27.3736 11.1335 27.2507 10.9654C27.1277 10.7975 26.9112 10.499 26.7696 10.3023C26.1286 9.41209 26.2595 9.50719 25.0344 9.04217C23.6407 8.51302 23.7384 8.57925 23.5397 8.03066C23.1347 6.91264 23.0372 6.66494 22.9897 6.63398C22.9086 6.58102 21.5085 5.81813 20.915 5.5035C20.6591 5.36778 20.5305 5.33833 20.4124 5.38803ZM37.1238 6.61093C37.5262 7.02636 37.8766 7.27662 38.2904 7.44389C38.6409 7.58578 38.3122 7.78995 37.6801 7.82312L37.1993 7.84838L36.8122 7.41421C36.4113 6.96444 36.3891 6.92556 36.4813 6.83651C36.5116 6.80718 36.5972 6.67902 36.6716 6.55157C36.836 6.26976 36.7871 6.26324 37.1238 6.61093ZM31.4883 7.18001C31.4885 7.31201 31.4949 7.36113 31.5026 7.28931C31.5102 7.21737 31.5101 7.10936 31.5022 7.04929C31.4944 6.98911 31.4881 7.04801 31.4883 7.18001ZM12.9283 23.8304C11.974 23.8385 11.6782 23.8525 11.6679 23.8905C11.6382 23.9997 11.6265 34.5234 11.656 34.5447C11.7056 34.5803 14.2747 34.5602 14.3059 34.5239C14.3215 34.5058 14.2134 34.3737 14.0657 34.2303C12.6985 32.9029 12.3523 30.8879 13.1877 29.1201L13.3485 28.78L13.3667 28.1C13.3839 27.4564 13.3896 27.4114 13.4731 27.2599C13.5748 27.0755 13.7566 26.6833 14.159 25.78C14.425 25.183 14.8867 24.1941 14.9849 24.011C15.0828 23.8286 15.0174 23.7959 14.5796 23.8084C14.3572 23.8147 13.6141 23.8247 12.9283 23.8304Z" fill="#DDA55B"/>
<path fill-rule="evenodd" clip-rule="evenodd" d="M31.34 3.18598C31.3399 3.24872 31.3168 3.62853 31.2886 4.03011L31.2375 4.76017L31.4177 4.96329C31.5168 5.07503 31.6753 5.23124 31.7698 5.31063C31.8643 5.3899 32.0214 5.53249 32.1189 5.62747C32.2164 5.72233 32.3129 5.79997 32.3334 5.79997C32.3719 5.79997 32.8522 5.06642 32.8522 5.00752C32.8522 4.95386 32.5186 4.4055 32.288 4.08005C31.8438 3.45323 31.7526 3.31553 31.7526 3.27223C31.7526 3.24767 31.7835 3.26013 31.8213 3.30005C31.9061 3.38933 31.9162 3.30482 31.8324 3.20717C31.7706 3.13511 31.7527 3.12894 31.5034 3.09449C31.3424 3.07226 31.3402 3.07342 31.34 3.18598ZM33.7457 5.07003C33.7458 5.17828 33.9332 5.61071 34.0183 5.69882C34.1355 5.82034 34.6859 5.83862 34.8382 5.72606C34.9403 5.65052 35.0946 5.10623 35.0295 5.05094C34.925 4.96201 33.7457 4.97947 33.7457 5.07003ZM36.6716 6.55157C36.5972 6.67902 36.5116 6.80718 36.4813 6.83651C36.3891 6.92556 36.4113 6.96444 36.8122 7.41421L37.1993 7.84838L37.6801 7.82312C38.3122 7.78994 38.6409 7.58578 38.2904 7.44389C37.8766 7.27662 37.5262 7.02636 37.1238 6.61093C36.7871 6.26324 36.836 6.26976 36.6716 6.55157ZM31.5011 6.62606C31.4898 6.63922 31.4886 6.86713 31.4984 7.1324L31.5163 7.61476L31.6538 7.80601C32.2321 8.60998 33.0344 9.09211 33.8569 9.12982C34.2598 9.14821 34.2613 9.14682 34.2606 8.762C34.26 8.36729 34.2756 8.38021 33.7973 8.3787C32.9207 8.37579 32.1867 7.87247 31.7327 6.96292C31.565 6.62699 31.5362 6.58521 31.5011 6.62606ZM27.7991 11.8374C27.9838 12.1393 28.3561 13.0845 28.509 13.64C28.8715 14.9565 28.8253 15.9811 28.3149 17.9408C28.0825 18.8333 28.0486 18.7507 28.6046 18.6454C28.6867 18.6298 28.7531 18.5892 28.7764 18.5402C28.7973 18.4963 28.8395 18.4153 28.8701 18.3601C28.9662 18.1869 29.1763 17.598 29.3135 17.1171C29.744 15.6077 29.5823 13.996 28.8525 12.5231C28.7654 12.3475 28.6942 12.1925 28.6942 12.179C28.6942 12.1141 28.5857 12.0459 28.3503 11.9628C28.2086 11.9128 28.0319 11.8377 27.9575 11.796C27.7578 11.6839 27.7124 11.6957 27.7991 11.8374ZM11.7298 13.1504C11.5393 13.5008 11.1245 14.4162 11.0639 14.6199C11.0508 14.6639 11.0242 14.745 11.0046 14.8C10.9103 15.0658 10.7383 15.7646 10.7018 16.0307L10.6785 16.2H11.0437C11.2595 16.2 11.4089 16.1839 11.4089 16.1607C11.4089 16.1 11.6699 15.4751 11.7604 15.3193C11.8354 15.1901 11.8457 15.1032 11.9031 14.12C11.9371 13.537 11.9729 12.9924 11.9828 12.91C12.0103 12.6793 11.9598 12.7273 11.7298 13.1504ZM13.3259 28.87C13.2738 28.9395 13.1684 29.1592 13.2064 29.1189C13.2374 29.0862 13.4013 28.8 13.3892 28.8C13.3832 28.8 13.3547 28.8314 13.3259 28.87ZM13.0911 29.3238C13.0516 29.414 13.0252 29.4946 13.0324 29.5029C13.0396 29.5113 13.0791 29.4376 13.1202 29.3391C13.2139 29.1147 13.1886 29.1015 13.0911 29.3238ZM12.9591 29.6844C12.938 29.7551 12.9267 29.8199 12.934 29.8285C12.9414 29.837 12.9647 29.7863 12.9859 29.7155C13.007 29.6448 13.0184 29.58 13.011 29.5714C13.0037 29.5629 12.9803 29.6138 12.9591 29.6844ZM12.837 30.1422C12.824 30.2224 12.8203 30.2961 12.8287 30.3059C12.8371 30.3156 12.8546 30.258 12.8675 30.1777C12.8804 30.0975 12.8842 30.0238 12.8758 30.0141C12.8674 30.0043 12.8499 30.0619 12.837 30.1422ZM12.7624 31.0799C12.7624 31.355 12.7679 31.4674 12.7746 31.33C12.7813 31.1925 12.7813 30.9675 12.7746 30.83C12.7679 30.6924 12.7624 30.805 12.7624 31.0799ZM12.8237 31.8799C12.8255 31.9839 12.8796 32.1546 12.8808 32.06C12.8813 32.016 12.8685 31.944 12.8522 31.9C12.8341 31.851 12.8231 31.8432 12.8237 31.8799ZM12.9231 32.3046C12.9203 32.3621 13.0603 32.7675 13.101 32.82C13.1181 32.842 13.0984 32.761 13.0573 32.6399C12.9377 32.288 12.9254 32.2574 12.9231 32.3046ZM13.2698 33.2023C13.3129 33.2915 13.3708 33.386 13.3984 33.4122C13.4394 33.4512 13.4427 33.449 13.4162 33.4C13.3983 33.367 13.3477 33.2724 13.3036 33.1899C13.1963 32.9891 13.1713 32.9982 13.2698 33.2023ZM13.6598 33.7943C13.7354 33.8891 13.8746 34.0404 13.9691 34.1304C14.1679 34.3198 14.1031 34.2404 13.7629 33.878C13.6208 33.7266 13.5786 33.6923 13.6598 33.7943Z" fill="#A56524"/>
<path fill-rule="evenodd" clip-rule="evenodd" d="M5.7258 1.22728C5.0341 1.24392 5.1294 1.20691 4.6392 1.65039C4.4974 1.77866 4.3581 1.90531 4.3296 1.93184C4.2183 2.03544 3.0693 3.03182 2.9634 3.11668C2.711 3.31875 2.6627 3.94871 2.8728 4.2979C2.9486 4.42385 2.9445 4.42804 2.4931 4.68086C1.9174 5.00317 1.9057 5.00364 1.5326 4.7202C1.2166 4.48007 1.2404 4.48228 1.1036 4.68051L0.9929 4.84079L1.101 4.95568C1.1604 5.01889 1.2501 5.09466 1.3004 5.12411C1.4486 5.21083 1.6838 5.4108 1.6838 5.44991C1.6838 5.46982 1.5988 5.58994 1.4948 5.71682C1.2754 5.98454 1.2727 5.99664 1.4075 6.11269C1.5532 6.23794 1.5672 6.23119 1.89 5.87908C2.2045 5.53617 2.4616 5.32164 2.919 5.02098L3.2091 4.8302L3.4069 4.95673L3.6047 5.08325L5.1443 5.07173L6.6838 5.06021L6.89 4.94078C7.6361 4.50859 8.452 5.29557 8.4532 6.44862C8.4539 7.04925 8.4078 7.14726 7.3043 8.89372C7.1353 9.16132 6.8556 9.61424 6.6828 9.90023C6.5101 10.1862 6.2419 10.6271 6.0868 10.8802C5.3108 12.1463 5.2881 12.1893 4.9913 12.9601C3.9917 15.5561 4.9016 19.1016 6.9798 20.708C7.6145 21.1987 8.2921 21.5422 8.9403 21.7019C9.5345 21.8483 9.6613 21.8537 13.1271 21.877L16.5808 21.9001L16.7838 21.9894C17.5008 22.3044 18.0099 22.9205 18.2442 23.7568C18.3219 24.034 18.3475 24.8244 18.2848 25.0082C18.2676 25.0589 18.2184 25.2082 18.1756 25.3402C17.8783 26.2566 17.2034 26.8277 16.3058 26.9222C15.3923 27.0183 14.9807 27.1744 14.3446 27.666C14.0906 27.8624 13.6171 28.3722 13.4865 28.5902C13.4568 28.6397 13.412 28.6802 13.3869 28.6802C13.3619 28.6802 13.3333 28.7297 13.3234 28.7902C13.308 28.8841 13.331 28.8651 13.4806 28.6602C14.2496 27.6069 15.2343 27.0002 16.1747 27.0002C18.5208 27.0001 19.1986 23.2343 17.0599 22.0821C16.5321 21.7977 16.8904 21.8228 12.9725 21.7957C10.5719 21.7791 9.3722 21.7568 9.244 21.7263C9.0464 21.6794 8.8756 21.6336 8.6401 21.5642C6.9754 21.0737 5.4489 19.3738 4.9271 17.4294C4.6778 16.5005 4.6563 16.3377 4.6567 15.3802C4.657 14.5172 4.6583 14.5055 4.8341 13.701C4.9869 13.0016 5.4507 11.8585 5.6703 11.6402C5.6964 11.6141 6.6475 10.0614 6.8041 9.78907C6.8703 9.67406 6.9699 9.50796 7.0255 9.42008C7.1735 9.18588 7.4305 8.77581 7.9782 7.90013C8.102 7.70214 8.2591 7.42254 8.3273 7.27867C8.9404 5.98605 7.9139 4.30012 6.875 4.89352L6.6882 5.00015H5.1085H3.5288L3.4162 4.90016C3.2651 4.76607 3.2359 4.77084 2.8919 4.98722C2.4193 5.28439 2.2728 5.40429 1.9072 5.79376C1.5133 6.21315 1.5589 6.18766 1.4261 6.06299L1.323 5.96615L1.5206 5.73893C1.7742 5.44724 1.7713 5.41662 1.4691 5.1893C0.9983 4.83532 1.016 4.86431 1.1598 4.68098L1.2543 4.56039L1.5425 4.78027C1.9068 5.05823 1.9218 5.05765 2.4897 4.73894C2.9908 4.45784 2.99 4.45889 2.8852 4.20618C2.7203 3.80891 2.7684 3.34506 2.9946 3.15265C3.1955 2.98189 4.4808 1.86282 4.548 1.8002C4.5835 1.76714 4.6301 1.72221 4.6516 1.70021C4.7761 1.5731 5.0105 1.36614 5.0751 1.32645C5.196 1.25195 7.5347 1.26336 7.8866 1.34018C10.5393 1.91927 12.1001 5.13261 11.2284 8.22023C11.0497 8.85321 10.8852 9.19543 10.3664 10.0137C10.2108 10.2592 9.9654 10.6589 9.8212 10.9017C9.677 11.1447 9.4258 11.5587 9.2629 11.8218C8.5413 12.9874 7.9973 13.9093 7.8972 14.1363C7.2819 15.5308 7.7769 17.2378 9.0075 17.9658C9.2115 18.0864 9.2686 18.1107 9.622 18.2276C9.7879 18.2824 10.1976 18.2892 12.9725 18.2828C16.5342 18.2747 16.8193 18.2903 17.5773 18.5348C19.1549 19.0437 20.7177 20.8308 21.1152 22.5801C21.1302 22.6461 21.1495 22.6781 21.158 22.6513C21.212 22.4808 20.7404 21.3561 20.3818 20.8001C19.633 19.6392 18.644 18.838 17.4742 18.4447C16.9385 18.2645 16.9686 18.266 13.2474 18.2402C9.9997 18.2175 9.6923 18.2097 9.5189 18.1452C9.4149 18.1064 9.299 18.0638 9.2612 18.0504C8.6649 17.8388 8.0035 17.0255 7.789 16.2402C7.546 15.3503 7.6765 14.5568 8.2189 13.6268C8.4727 13.1917 9.1909 12.0095 9.2611 11.9113C9.2882 11.8734 9.4416 11.6214 9.602 11.3513C9.7625 11.0812 10.0173 10.6622 10.1683 10.4202C10.9028 9.2435 11.0731 8.91037 11.2628 8.28018C12.1285 5.40335 10.7201 2.15533 8.2818 1.40525C8.1211 1.35578 7.9356 1.29781 7.8694 1.27628C7.7304 1.23112 6.6184 1.20563 5.7258 1.22728ZM5.0257 2.47415C4.5825 2.62303 4.6666 3.23343 5.1398 3.30222C5.7206 3.38673 6.0335 3.05778 5.7877 2.62105C5.7002 2.46565 5.2878 2.38604 5.0257 2.47415ZM5.5498 2.5192C5.9341 2.62279 5.8928 3.18826 5.4961 3.25415C5.106 3.31898 4.7803 3.16755 4.778 2.9202C4.7747 2.58555 5.1237 2.4042 5.5498 2.5192ZM31.2818 3.36019C31.2818 3.48113 31.2882 3.53071 31.2961 3.47019C31.304 3.40966 31.304 3.31072 31.2961 3.25019C31.2882 3.18966 31.2818 3.23913 31.2818 3.36019ZM31.2458 3.90017C31.2462 3.98816 31.2532 4.01948 31.2614 3.96977C31.2696 3.91995 31.2693 3.84802 31.2607 3.80972C31.2521 3.77143 31.2454 3.81217 31.2458 3.90017ZM31.2114 4.3802C31.2118 4.4682 31.2188 4.49951 31.2271 4.44969C31.2353 4.39999 31.235 4.32794 31.2264 4.28976C31.2178 4.25146 31.211 4.2922 31.2114 4.3802ZM31.4576 7.28019C31.4576 7.68724 31.4627 7.85369 31.4689 7.65022C31.4751 7.44664 31.4751 7.11373 31.4689 6.91015C31.4627 6.70668 31.4576 6.87314 31.4576 7.28019ZM37.2595 7.9077C37.2925 7.91782 37.3466 7.91782 37.3797 7.9077C37.4128 7.89769 37.3857 7.88942 37.3196 7.88942C37.2534 7.88942 37.2264 7.89769 37.2595 7.9077ZM31.4571 8.92014C31.4571 9.26119 31.4624 9.40064 31.4688 9.23023C31.4753 9.05971 31.4753 8.7807 31.4688 8.61017C31.4624 8.43964 31.4571 8.57921 31.4571 8.92014ZM10.6379 16.0608C10.6087 16.2419 10.6323 16.2813 10.7666 16.2755L10.8763 16.2707L10.7732 16.2441C10.6787 16.2198 10.6709 16.2053 10.6802 16.069C10.6929 15.8807 10.6677 15.876 10.6379 16.0608ZM11.3058 16.2402L11.1856 16.2696L11.2952 16.2749C11.3555 16.2778 11.4144 16.2622 11.4261 16.2402C11.4378 16.2182 11.4426 16.2026 11.4367 16.2054C11.4309 16.2083 11.372 16.224 11.3058 16.2402ZM12.2595 16.2683C12.302 16.2779 12.3716 16.2779 12.4141 16.2683C12.4566 16.2589 12.4218 16.251 12.3368 16.251C12.2517 16.251 12.2169 16.2589 12.2595 16.2683ZM13.5481 16.2701C14.0537 16.2764 14.881 16.2764 15.3866 16.2701C15.8922 16.2639 15.4785 16.2588 14.4674 16.2588C13.4562 16.2588 13.0425 16.2639 13.5481 16.2701ZM21.1684 22.7274C21.1684 22.7388 21.2005 22.9172 21.2397 23.1241C21.8354 26.2677 20.1536 29.5016 17.5601 30.1993C17.4562 30.2273 17.3247 30.2667 17.268 30.2871C17.2113 30.3075 16.9794 30.3328 16.7526 30.3435C15.7672 30.3901 15.3438 30.8604 15.5521 31.6767C15.7057 32.2786 15.9508 32.3997 17.0185 32.4016C17.5819 32.4025 17.941 32.4214 18.1259 32.4597C18.3762 32.5116 18.5133 32.516 18.3617 32.4673C18.0706 32.3738 17.8503 32.3535 17.0569 32.3472C15.9743 32.3386 15.8247 32.2773 15.6239 31.7601C15.3354 31.017 15.7686 30.4512 16.6667 30.3982C17.3012 30.3606 17.6189 30.2799 18.256 29.9939C18.6239 29.8287 19.1143 29.5133 19.3555 29.2864C19.6784 28.9829 19.913 28.7304 20.0553 28.5332C20.1477 28.405 20.2331 28.2912 20.2451 28.2801C20.257 28.2692 20.3689 28.0847 20.4936 27.8702C21.3282 26.4354 21.6153 24.5871 21.2543 22.9737C21.211 22.7802 21.1684 22.6581 21.1684 22.7274ZM13.601 23.8298C13.7199 23.8376 13.9054 23.8376 14.0134 23.8297C14.1213 23.8218 14.0241 23.8154 13.7973 23.8155C13.5704 23.8155 13.4821 23.822 13.601 23.8298ZM11.6231 27.7201C11.6231 27.7972 11.6302 27.8286 11.6388 27.7902C11.6475 27.7517 11.6475 27.6887 11.6388 27.6502C11.6302 27.6116 11.6231 27.6432 11.6231 27.7201ZM25.953 27.9601C25.953 28.0372 25.9601 28.0686 25.9687 28.0302C25.9773 27.9917 25.9773 27.9287 25.9687 27.8902C25.9601 27.8516 25.953 27.8832 25.953 27.9601ZM11.6294 29.6002C11.6294 30.0071 11.6345 30.1737 11.6407 29.9701C11.647 29.7667 11.647 29.4336 11.6407 29.2302C11.6345 29.0267 11.6294 29.1932 11.6294 29.6002ZM12.7644 30.4179C12.7515 30.4982 12.7486 30.5728 12.7581 30.5839C12.7675 30.5948 12.7858 30.5382 12.7988 30.458C12.8117 30.3776 12.8146 30.303 12.8051 30.292C12.7957 30.281 12.7774 30.3376 12.7644 30.4179ZM11.6261 32.0801C11.6261 32.2232 11.6324 32.2816 11.64 32.2101C11.6476 32.1387 11.6476 32.0217 11.64 31.9502C11.6324 31.8786 11.6261 31.9372 11.6261 32.0801ZM18.5223 32.5681C20.2781 33.4367 20.8754 35.504 19.8691 37.2289C19.3966 38.0388 18.8814 38.2801 17.625 38.2801H16.8041V37.4202V36.5601H17.2341C18.1725 36.5601 18.6122 35.8285 18.0572 35.1902C17.8709 34.9759 17.7851 34.9608 16.7526 34.9591C15.436 34.957 15.1245 34.8904 14.3814 34.4515C14.2216 34.3571 14.2142 34.356 14.2751 34.4351C14.3111 34.4819 14.3266 34.5222 14.3094 34.5247C14.2923 34.5273 14.3325 34.5431 14.3986 34.5601C14.4648 34.577 14.682 34.664 14.8814 34.7535C15.3817 34.9778 15.5711 35.004 16.6754 35.0014C17.9045 34.9986 18.0997 35.0703 18.2145 35.5664C18.3461 36.135 18.021 36.4488 17.268 36.4801L16.7869 36.5002V37.4202V38.3401L17.6289 38.3395C18.3456 38.339 18.5015 38.328 18.677 38.2657C20.1515 37.7424 20.8084 35.7833 20.082 34.0756C19.975 33.8239 19.5809 33.2014 19.5271 33.1991C19.5131 33.1984 19.4322 33.126 19.3473 33.038C19.1788 32.8635 18.6147 32.5185 18.5049 32.5229C18.4463 32.5252 18.4488 32.5317 18.5223 32.5681ZM11.9162 34.5884C11.959 34.598 12.0208 34.5976 12.0537 34.5876C12.0865 34.5776 12.0515 34.5698 11.9759 34.5702C11.9003 34.5707 11.8735 34.5789 11.9162 34.5884Z" fill="#98A9AF"/>
</g>
<defs>
<clipPath id="clip0_2_10">
<rect width="40" height="40" fill="white"/>
</clipPath>
</defs>
</svg>
